<svg xmlns="http://www.w3.org/2000/svg" width="375" viewBox="0 0 375 375" height="375" version="1.0"><defs><clipPath id="a"><path d="M 0 22.5 L 200 22.5 L 200 208 L 0 208 Z M 0 22.5"/></clipPath><clipPath id="b"><path d="M 125 223 L 267 223 L 267 352.5 L 125 352.5 Z M 125 223"/></clipPath></defs><g clip-path="url(#a)"><path fill="#8AD1CD" d="M 108.617188 201.320312 C 99.921875 207.351562 87.421875 208.753906 86.703125 205.050781 C 85.980469 201.347656 95.847656 199.203125 98.238281 194.484375 C 100.632812 189.761719 97.300781 187.800781 91.386719 187.765625 C 81.402344 187.703125 75.910156 197.695312 67.539062 201.394531 C 56.796875 206.136719 44.238281 199.492188 35.570312 193.230469 C 44.796875 183.8125 54.417969 183.125 66.558594 181.121094 C 73.519531 179.828125 89.09375 173.253906 78.484375 164.910156 C 71.265625 159.398438 61.589844 170.441406 55.066406 173.070312 C 45.871094 176.570312 32.546875 177.976562 23.550781 173.046875 C 16.320312 169.011719 10.621094 156.109375 0.0078125 149.246094 C 12.417969 148.113281 21.050781 142.847656 31.851562 142.757812 C 42.652344 142.671875 53.988281 153.234375 65.105469 149.597656 C 79.335938 144.941406 65.355469 130.808594 56.785156 128.691406 C 46.292969 126.710938 36.054688 131.539062 26.023438 126.453125 C 16.433594 121.222656 11.914062 108.917969 10.933594 98.40625 C 10.390625 89.230469 10.195312 70.585938 14.0625 67.351562 C 24.539062 72.289062 42.738281 72.242188 47.144531 78.183594 C 52.871094 86.648438 48.820312 96.835938 55.136719 105.597656 C 61.894531 114.21875 76.964844 118.144531 83.390625 106.195312 C 88.929688 94.539062 75.355469 87.65625 68.730469 80.964844 C 62.554688 74.125 51.210938 65.039062 52.890625 55.132812 C 53.960938 49.367188 57.832031 44.65625 60.523438 39.34375 C 62.769531 34.179688 63.691406 27.96875 65.347656 22.503906 C 75.804688 31.882812 90.898438 31.371094 97.804688 40.433594 C 105.445312 50.238281 104.042969 58.808594 100.019531 68.261719 C 94.175781 81.988281 98.527344 98.289062 105.769531 99.363281 C 111.535156 100.429688 115.117188 94.828125 116.472656 89.953125 C 117.6875 84.632812 115.777344 81.808594 114.175781 76.917969 C 110.539062 65.800781 112.945312 58.121094 122.601562 51.515625 C 126.910156 48.136719 132.253906 44.910156 137.007812 41.386719 C 141.617188 37.414062 144.007812 32.695312 148.027344 28.425781 C 152.59375 31.855469 155.78125 44.59375 157.082031 50.078125 C 159.113281 57.78125 159.660156 65.476562 155.039062 72.40625 C 148.773438 81.839844 135.570312 88.132812 132.546875 99.953125 C 131.632812 104.683594 131.59375 112.078125 136.167969 114.027344 C 142.515625 116.875 145.652344 111.417969 147.15625 106.984375 C 148.8125 101.519531 148.101562 96.335938 150.496094 91.617188 C 153.03125 87.339844 158.53125 83.078125 162.6875 80.734375 C 169.808594 76.925781 185.058594 75.378906 189.679688 68.453125 C 190.949219 79.851562 191.9375 88.882812 187.589844 99.660156 C 183.085938 111.472656 174.03125 116.894531 162.617188 121.125 C 157.726562 122.726562 135.453125 137.402344 149.339844 140.730469 C 160.570312 143.453125 165.828125 129.429688 173.25 125.027344 C 180.96875 120.039062 191.316406 121.578125 199.765625 118.8125 C 197.777344 130.785156 191.804688 141.109375 184.203125 150.980469 C 177.347656 160.117188 168.335938 158.144531 158.851562 160.757812 C 154.847656 162.066406 147.136719 165.574219 149.773438 170.621094 C 152.117188 174.773438 164.429688 168.777344 167.066406 173.820312 C 172.089844 184.007812 157.203125 187.28125 138.148438 186.238281 C 134.554688 186.042969 124.523438 180.851562 124.523438 180.851562 C 124.523438 180.851562 117.3125 195.289062 108.617188 201.320312 Z M 108.617188 201.320312"/></g><path fill="#273140" d="M 46.816406 193.398438 C 46.636719 193.398438 46.476562 193.277344 46.429688 193.097656 C 46.375 192.882812 46.503906 192.664062 46.71875 192.609375 C 48.449219 192.167969 50.996094 191.839844 53.945312 191.460938 C 62.828125 190.316406 76.253906 188.589844 86.75 181.488281 C 95.792969 175.375 113.777344 170.832031 124.261719 180.074219 C 126.878906 167.09375 134.777344 157.324219 146.023438 153.210938 C 148.359375 152.269531 151.511719 151.316406 154.847656 150.304688 C 160.738281 148.515625 167.414062 146.488281 170.992188 144.070312 C 176.535156 140.320312 185.707031 130.980469 185.796875 130.886719 C 185.953125 130.726562 186.207031 130.726562 186.367188 130.878906 C 186.523438 131.035156 186.527344 131.289062 186.371094 131.449219 C 186.28125 131.542969 177.054688 140.941406 171.445312 144.734375 C 167.765625 147.222656 161.027344 149.265625 155.082031 151.070312 C 151.761719 152.078125 148.628906 153.03125 146.316406 153.960938 C 135.125 158.054688 127.332031 167.882812 124.917969 180.929688 C 124.890625 181.074219 124.785156 181.195312 124.648438 181.238281 C 124.503906 181.285156 124.351562 181.25 124.246094 181.148438 C 114.167969 171.5625 96.183594 176.082031 87.203125 182.15625 C 76.546875 189.363281 63.007812 191.105469 54.046875 192.257812 C 51.125 192.636719 48.601562 192.957031 46.917969 193.386719 C 46.882812 193.394531 46.851562 193.398438 46.816406 193.398438 Z M 46.816406 193.398438"/><path fill="#273140" d="M 124.519531 181.257812 C 124.328125 181.257812 124.15625 181.117188 124.125 180.917969 C 120.746094 159.78125 127.152344 136.195312 131.628906 130.910156 C 134.902344 126.925781 139.808594 124.46875 144.140625 122.304688 C 145.027344 121.859375 145.902344 121.421875 146.746094 120.980469 C 160.496094 113.101562 168.933594 104.757812 174.085938 93.941406 C 174.183594 93.742188 174.421875 93.65625 174.625 93.753906 C 174.824219 93.847656 174.910156 94.089844 174.8125 94.289062 C 169.582031 105.261719 161.046875 113.710938 147.132812 121.6875 C 146.269531 122.136719 145.394531 122.574219 144.503906 123.019531 C 140.035156 125.257812 135.414062 127.566406 132.246094 131.425781 C 127.84375 136.617188 121.574219 159.878906 124.917969 180.792969 C 124.953125 181.011719 124.804688 181.21875 124.585938 181.253906 C 124.5625 181.257812 124.542969 181.257812 124.519531 181.257812 Z M 124.519531 181.257812"/><path fill="#273140" d="M 124.523438 181.257812 C 124.386719 181.257812 124.253906 181.191406 124.179688 181.066406 C 107.734375 154.410156 75.816406 152.914062 59.5625 158.234375 C 52.882812 160.421875 32.554688 167.074219 23.777344 156.886719 C 23.632812 156.71875 23.652344 156.464844 23.820312 156.320312 C 23.988281 156.175781 24.242188 156.195312 24.386719 156.363281 C 32.8125 166.144531 52.757812 159.617188 59.3125 157.472656 C 75.800781 152.074219 108.179688 153.59375 124.863281 180.644531 C 124.980469 180.835938 124.921875 181.082031 124.730469 181.199219 C 124.667969 181.238281 124.59375 181.257812 124.523438 181.257812 Z M 124.523438 181.257812"/><path fill="#273140" d="M 124.519531 181.257812 C 124.363281 181.257812 124.210938 181.164062 124.148438 181.007812 C 121.4375 174.28125 111.632812 139.773438 114.113281 124.5 C 116.503906 109.785156 123.058594 95.652344 128.140625 88.746094 C 137.488281 75.9375 141.90625 64.828125 142.914062 51.601562 C 142.929688 51.378906 143.117188 51.214844 143.34375 51.230469 C 143.566406 51.246094 143.730469 51.441406 143.714844 51.660156 C 142.695312 65.046875 138.230469 76.28125 128.785156 89.21875 C 123.761719 96.050781 117.273438 110.046875 114.90625 124.628906 C 112.492188 139.492188 122.296875 174.253906 124.894531 180.703125 C 124.976562 180.910156 124.878906 181.144531 124.671875 181.226562 C 124.621094 181.246094 124.570312 181.257812 124.519531 181.257812 Z M 124.519531 181.257812"/><path fill="#273140" d="M 124.523438 181.257812 C 124.371094 181.257812 124.226562 181.171875 124.15625 181.027344 C 116.222656 164.066406 103.511719 140.601562 84.867188 132.617188 C 79.882812 130.597656 74.664062 128.871094 69.621094 127.195312 C 55.941406 122.664062 43.023438 118.382812 34.109375 108.71875 C 21.949219 95.535156 20.554688 81.035156 20.542969 80.890625 C 20.523438 80.667969 20.6875 80.472656 20.90625 80.453125 C 21.125 80.4375 21.324219 80.597656 21.34375 80.820312 C 21.355469 80.960938 22.734375 95.203125 34.703125 108.175781 C 43.476562 117.683594 56.300781 121.933594 69.875 126.433594 C 74.933594 128.109375 80.160156 129.84375 85.175781 131.875 C 104.082031 139.972656 116.894531 163.609375 124.886719 180.6875 C 124.980469 180.886719 124.894531 181.125 124.695312 181.222656 C 124.636719 181.246094 124.578125 181.257812 124.523438 181.257812 Z M 124.523438 181.257812"/><path fill="#273140" d="M 163.363281 229.097656 C 163.335938 229.097656 163.304688 229.09375 163.277344 229.085938 C 152.304688 226.640625 135.292969 203.0625 124.164062 181.035156 C 110.960938 154.910156 101.726562 126.097656 97.785156 113.796875 C 96.878906 110.972656 96.222656 108.929688 95.878906 108.039062 C 92.511719 100.761719 90.441406 92.914062 88.441406 85.320312 C 84.597656 68.777344 79.75 50.015625 70.785156 36.589844 C 70.660156 36.40625 70.710938 36.15625 70.894531 36.035156 C 71.078125 35.910156 71.328125 35.960938 71.453125 36.144531 C 80.492188 49.683594 85.363281 68.527344 89.222656 85.125 C 91.210938 92.675781 93.269531 100.488281 96.617188 107.722656 C 96.980469 108.664062 97.640625 110.710938 98.546875 113.550781 C 102.484375 125.832031 111.707031 154.601562 124.878906 180.671875 C 137.550781 205.75 154.132812 226.222656 163.453125 228.300781 C 163.667969 228.347656 163.804688 228.5625 163.757812 228.78125 C 163.714844 228.96875 163.546875 229.097656 163.363281 229.097656 Z M 163.363281 229.097656"/><path fill="#273140" d="M 204.203125 38.296875 C 195.765625 38.296875 186.535156 31.960938 175.410156 36.691406 C 165.207031 41.027344 157.328125 51.957031 156.125 62.003906 C 154.917969 71.644531 146.078125 76.066406 146.882812 86.109375 C 147.6875 96.152344 155.320312 104.589844 163.355469 109.816406 C 170.988281 115.039062 181.433594 115.039062 189.871094 119.054688 C 199.914062 123.074219 201.925781 133.117188 213.175781 135.929688 C 224.023438 138.339844 237.28125 133.519531 244.113281 125.082031 C 248.128906 119.859375 255.363281 107.402344 247.324219 102.984375 C 242.90625 100.976562 239.289062 103.386719 238.886719 96.957031 C 238.484375 92.941406 240.898438 88.121094 241.699219 84.101562 C 242.90625 76.46875 244.511719 66.824219 240.496094 59.59375 C 236.074219 51.15625 228.039062 41.113281 219.203125 37.09375 C 215.183594 35.488281 209.960938 34.683594 205.542969 34.683594 C 201.925781 34.683594 186.78125 40.308594 183.164062 40.308594"/><path fill="#8AD1CD" d="M 343.636719 246.171875 C 346.582031 247.4375 364.949219 252.480469 366.21875 248.371094 C 367.113281 245.480469 367.84375 242.492188 368.382812 239.425781 C 370.414062 228.753906 369.96875 218.265625 368.910156 207.773438 C 369.003906 208.714844 344.070312 211.625 347.234375 200.433594 C 348.550781 195.792969 367.464844 195.167969 367.09375 191.894531 C 366.660156 188.046875 366.269531 184.1875 366.015625 180.308594 C 366.117188 169.34375 364.433594 158.65625 367.851562 147.902344 C 370.292969 140.214844 375.039062 133.265625 374.929688 125.617188 C 364.527344 129.078125 354.121094 132.542969 343.191406 134.992188 C 336.121094 136.375 328.230469 136.945312 319.890625 137.1875 C 319.574219 138.082031 317.207031 152.527344 316.046875 158.84375 C 314.242188 168.683594 303.765625 173.253906 295.285156 167.890625 C 286.207031 162.148438 289.5 145.460938 293.707031 137.410156 C 283.945312 137.484375 274.082031 137.746094 264.609375 138.84375 C 264.566406 139.441406 264.359375 146.742188 265.542969 149.5 C 268.496094 156.402344 278.160156 169.140625 272.078125 176.890625 C 265.515625 185.253906 257.71875 171.621094 255.148438 166.726562 C 251.011719 158.84375 249.070312 149.828125 251.707031 140.980469 C 237.449219 144.160156 224.726562 150.171875 215.480469 161.570312 C 201.398438 178.933594 206.367188 212.238281 222.207031 225.585938 C 230.246094 232.359375 248.542969 238.835938 262.199219 243.253906 C 259.976562 259.675781 262.816406 276.148438 280.054688 285.804688 C 304.730469 299.445312 330.128906 294.242188 347.53125 278.289062 C 345.667969 279.996094 333.5625 271.847656 325.6875 262.535156 C 319.128906 254.777344 315.503906 246.210938 323.171875 241.847656 C 329.699219 238.128906 337.730469 243.632812 343.636719 246.171875 Z M 248.261719 205.496094 C 244.222656 208.59375 238.21875 208.441406 232.839844 203.40625 C 228.574219 199.40625 224.488281 192.246094 225.777344 186.144531 C 230.917969 161.851562 267.441406 190.796875 248.261719 205.496094 Z M 323.890625 225.933594 C 319.796875 222.390625 318.761719 215.742188 325 211.589844 C 336.789062 203.75 349.347656 219.636719 335.203125 227.058594 C 330.902344 229.316406 326.683594 228.347656 323.890625 225.933594 Z M 323.890625 225.933594"/><path fill="#273140" d="M 205.675781 270.511719 C 205.542969 270.511719 205.414062 270.449219 205.339844 270.332031 C 205.214844 270.148438 205.269531 269.898438 205.453125 269.777344 C 212.375 265.21875 219.726562 261.75 226.007812 258.957031 C 228.964844 257.644531 231.992188 256.355469 234.921875 255.105469 C 242.425781 251.910156 250.183594 248.605469 257.433594 244.585938 C 265.746094 239.976562 274.285156 234.449219 282.816406 228.15625 C 296.96875 217.71875 311.003906 205.199219 324.535156 190.957031 C 334.226562 180.75 343.414062 169.9375 351.839844 158.824219 C 355.113281 154.503906 358.585938 149.824219 361.816406 144.847656 C 361.9375 144.664062 362.1875 144.609375 362.375 144.730469 C 362.558594 144.851562 362.613281 145.101562 362.492188 145.285156 C 359.238281 150.292969 355.605469 155.1875 352.480469 159.308594 C 344.039062 170.449219 334.832031 181.28125 325.117188 191.511719 C 311.554688 205.789062 297.484375 218.335938 283.296875 228.800781 C 274.738281 235.117188 266.167969 240.664062 257.824219 245.289062 C 250.539062 249.328125 242.761719 252.640625 235.238281 255.847656 C 232.3125 257.09375 229.285156 258.382812 226.335938 259.691406 C 220.085938 262.472656 212.769531 265.921875 205.894531 270.449219 C 205.828125 270.492188 205.75 270.511719 205.675781 270.511719 Z M 205.675781 270.511719"/><g clip-path="url(#b)"><path fill="#FAD3D9" d="M 134.542969 242.6875 C 137.757812 247.910156 140.167969 253.535156 140.570312 259.960938 C 140.972656 265.585938 136.554688 269.605469 140.570312 274.023438 C 144.1875 278.042969 151.015625 279.246094 155.035156 282.058594 C 160.660156 286.078125 154.632812 286.882812 157.042969 292.105469 C 149.8125 296.925781 142.578125 304.558594 137.757812 311.390625 C 133.742188 317.414062 126.910156 326.65625 125.304688 333.488281 C 133.339844 335.496094 142.175781 332.28125 150.214844 335.898438 C 155.035156 338.308594 157.847656 342.324219 161.863281 345.539062 C 167.085938 349.15625 169.898438 345.136719 175.121094 343.128906 C 194.808594 334.289062 195.910156 335.09375 214.792969 341.121094 C 218.007812 342.324219 229.492188 352.402344 233.109375 352 C 237.929688 351.597656 238.699219 345.5 244.523438 340.316406 C 250.347656 335.136719 263.914062 332.28125 266.324219 328.664062 C 268.738281 325.050781 244.671875 290.914062 235.03125 288.101562 C 236.996094 282.863281 232.175781 281.660156 233.378906 280.453125 C 234.183594 279.648438 236.996094 279.246094 237.800781 278.847656 C 241.816406 277.640625 247.042969 278.042969 250.253906 276.035156 C 253.871094 274.023438 254.273438 268.398438 255.476562 264.382812 C 257.085938 259.960938 259.496094 255.945312 261.101562 251.523438 C 263.113281 245.5 261.101562 244.695312 255.878906 242.6875 C 250.253906 240.273438 245.03125 237.863281 239.808594 235.453125 C 229.363281 231.035156 219.320312 226.210938 208.46875 224.203125 C 197.21875 222.195312 185.570312 224.605469 174.722656 227.015625 C 167.085938 228.625 159.453125 231.035156 151.820312 233.445312 C 148.203125 234.648438 142.980469 237.863281 140.167969 238.265625 Z M 134.542969 242.6875"/></g><path fill="#F09A92" d="M 256.109375 155.578125 C 230.460938 142.242188 212.980469 142.414062 209.976562 137.265625 C 206.207031 130.800781 207.820312 114.640625 208.898438 108.71875 L 182.898438 108.71875 C 183.976562 114.640625 185.59375 130.800781 181.824219 137.265625 C 178.988281 142.121094 153.054688 147.0625 144.796875 152.347656 C 109.5625 174.890625 72.539062 255.496094 78.417969 268.960938 C 81.625 276.3125 151.375 230.890625 212.675781 230.449219 C 263.652344 230.078125 312.167969 277.144531 314.28125 270.050781 C 318.941406 254.429688 281.753906 168.914062 256.109375 155.578125 Z M 256.109375 155.578125"/><path fill="#F09A92" d="M 222.402344 61.191406 C 217.71875 54.089844 206.828125 48.425781 195.898438 48.449219 C 184.972656 48.425781 174.078125 54.089844 169.394531 61.191406 C 165.085938 67.730469 163.960938 78.351562 165.136719 86.035156 C 169.574219 114.980469 185.867188 125.816406 195.898438 125.816406 C 205.933594 125.816406 222.226562 114.980469 226.664062 86.035156 C 227.839844 78.355469 226.714844 67.730469 222.402344 61.191406 Z M 222.402344 61.191406"/><path fill="#F09A92" d="M 164.988281 83.734375 C 159.789062 81.71875 157.699219 85.839844 159.128906 90.773438 C 160.296875 94.808594 164.980469 99.039062 169.9375 101.59375 C 174.898438 104.152344 170.183594 85.753906 164.988281 83.734375 Z M 164.988281 83.734375"/><path fill="#F09A92" d="M 226.8125 83.734375 C 232.007812 81.71875 234.101562 85.839844 232.671875 90.773438 C 231.5 94.808594 226.820312 99.039062 221.859375 101.59375 C 216.902344 104.152344 221.613281 85.753906 226.8125 83.734375 Z M 226.8125 83.734375"/><path fill="#FAD3D9" d="M 184.953125 175.992188 C 190.175781 184.429688 212.304688 216.007812 212.304688 216.007812 C 212.304688 216.007812 250.445312 199.292969 268.523438 194.875 C 277.363281 192.464844 284.59375 188.042969 291.828125 195.277344 C 298.253906 201.707031 303.078125 209.742188 306.691406 217.375 C 310.308594 224.605469 311.515625 233.445312 313.925781 241.078125 C 315.933594 247.910156 317.941406 257.953125 316.738281 265.1875 C 313.523438 288.085938 266.113281 250.722656 258.882812 245.5 C 251.25 239.875 234.480469 230.632812 211.261719 233.386719 C 194.503906 235.375 175.3125 234.25 159.242188 239.070312 C 141.964844 243.894531 124.6875 249.117188 107.8125 254.742188 C 98.976562 257.554688 90.941406 261.167969 82.101562 263.179688 C 76.074219 264.382812 74.066406 263.179688 74.867188 256.75 C 75.671875 249.519531 78.886719 241.882812 81.296875 235.457031 C 87.324219 221.394531 96.5625 208.9375 103.796875 195.277344 C 109.824219 184.027344 131.921875 156.707031 142.769531 151.886719 C 148.792969 149.472656 180.9375 168.355469 184.953125 175.992188 Z M 184.953125 175.992188"/><path fill="#F09A92" d="M 78.417969 268.964844 C 79.550781 273.230469 102.402344 270.867188 124.679688 263.84375 C 153.082031 254.890625 182.34375 239.988281 183.839844 239.15625 C 186.511719 237.675781 189.375 236.941406 195.644531 235.03125 C 205.691406 231.976562 209.746094 238.226562 212.113281 237.550781 C 214.484375 236.875 208.941406 228.300781 202.835938 227.460938 C 199.511719 227.003906 194.792969 224.542969 194.113281 223.210938 C 193.4375 221.878906 196.105469 213.753906 197.796875 213.074219 C 199.488281 212.398438 206.457031 210.691406 207 211.703125 C 207.542969 212.714844 209.855469 215.820312 210.640625 216.429688 C 211.425781 217.042969 212.289062 216.875 212.414062 216.007812 C 212.640625 214.734375 211.890625 212.375 211.625 211.085938 C 211.324219 209.660156 211.15625 207.664062 210.289062 206.472656 C 209.921875 205.957031 205.671875 202.964844 204.011719 201.914062 C 199.265625 199.03125 185.464844 205.289062 183.992188 208.195312 C 182.515625 211.101562 178.855469 219.617188 176.027344 220.800781 C 173.199219 221.984375 125.195312 219.789062 107.980469 227.757812 C 86.03125 237.914062 75.726562 258.800781 78.417969 268.964844"/><path fill="#F09A92" d="M 213.195312 211.105469 C 213.464844 209.683594 213.59375 207.691406 214.4375 206.515625 C 214.792969 206.007812 218.984375 203.109375 220.625 202.097656 C 225.308594 199.316406 239.242188 205.886719 240.777344 208.824219 C 242.3125 211.761719 246.148438 220.363281 249 221.609375 C 251.855469 222.859375 274.621094 229.46875 290.042969 231.527344 C 305.464844 233.585938 316.765625 259.949219 314.28125 270.054688 C 313.027344 275.152344 297.210938 273.574219 278.730469 264.386719 C 262.214844 256.171875 242.84375 240.527344 241.566406 239.800781 C 238.863281 238.253906 235.988281 237.457031 229.671875 235.410156 C 219.5625 232.128906 215.636719 238.292969 213.253906 237.566406 C 210.871094 236.835938 216.234375 228.382812 222.328125 227.679688 C 225.640625 227.292969 230.3125 224.9375 230.960938 223.621094 C 231.613281 222.304688 228.777344 214.117188 227.070312 213.402344 C 225.363281 212.683594 218.359375 210.824219 217.839844 211.824219 C 217.316406 212.824219 215.066406 215.875 214.292969 216.472656 C 213.519531 217.066406 212.652344 216.878906 212.511719 216.011719 C 212.257812 214.730469 212.957031 212.386719 213.195312 211.105469 Z M 213.195312 211.105469"/><path fill="#273140" d="M 204.203125 45.796875 C 203.667969 52.226562 197.507812 55.976562 192.417969 59.191406 C 186.523438 62.671875 181.167969 66.6875 177.417969 72.582031 C 174.46875 77.136719 172.0625 82.492188 172.863281 88.117188 C 173.398438 91.332031 175.542969 93.742188 176.078125 96.957031 C 176.882812 100.707031 175.808594 102.851562 174.203125 106.066406 C 172.863281 108.742188 171.792969 111.6875 172.328125 114.636719 C 172.863281 118.386719 179.671875 123.109375 177.148438 122.9375 C 165.363281 122.136719 167.238281 109.546875 168.3125 106.332031 C 169.382812 103.117188 167.773438 100.171875 166.4375 97.492188 C 162.953125 91.066406 161.882812 88.921875 163.222656 81.421875 C 164.023438 76.066406 161.882812 72.046875 162.148438 66.421875 C 162.417969 55.441406 173.398438 47.136719 186.792969 44.726562 C 200.183594 42.316406 204.203125 45.796875 204.203125 45.796875 Z M 204.203125 45.796875"/></svg>